<?xml version="1.0" encoding="UTF-8" standalone="no"?>
<svg
   xmlns:dc="http://purl.org/dc/elements/1.1/"
   xmlns:cc="http://creativecommons.org/ns#"
   xmlns:rdf="http://www.w3.org/1999/02/22-rdf-syntax-ns#"
   xmlns:svg="http://www.w3.org/2000/svg"
   xmlns="http://www.w3.org/2000/svg"
   id="svg6"
   xml:space="preserve"
   viewBox="0 0 1024 768"
   y="0px"
   x="0px"
   version="1.1"><metadata
     id="metadata12"><rdf:RDF><cc:Work
         rdf:about=""><dc:format>image/svg+xml</dc:format><dc:type
           rdf:resource="http://purl.org/dc/dcmitype/StillImage" /></cc:Work></rdf:RDF></metadata><defs
     id="defs10" /><rect
     id="rect2"
     height="768"
     width="1024"
     fill="#451d5b" /><path
     id="path4"
     d="m273.63 340.21-17.627 5.6133v81.961h17.627zm28.102 0v87.574h17.627v-54.689l38.836 54.689h15.95v-87.57h-17.629v55.193l-39.17-55.19zm100.01 0v87.574h17.627v-54.689l38.836 54.689h15.955v-87.57h-17.629v55.193l-39.17-55.19zm100.01 0v16.729h56.697v-16.73zm82.25 0v87.574h17.627v-70.846h13.246c4.5026 0 8.096 1.0448 10.363 3.0098 2.2124 1.9087 3.3359 4.8266 3.3359 8.666 0 3.6826-1.09 6.5461-3.2461 8.5332-2.5154 2.3129-6.4892 3.4805-11.799 3.4805h-3.3672v17.1l20.848 30.057h21.299l-23.174-32.986c4.6137-1.6955 8.3765-4.2102 11.229-7.5 4.0975-4.7378 6.1738-10.948 6.1738-18.459 0-8.3755-2.5594-15.427-7.3984-20.4-2.616-2.683-5.871-4.7478-9.6777-6.1289-3.8615-1.3917-8.3094-2.0996-13.238-2.0996zm105.36 0-17.627 5.6133v81.961h57.035v-16.72h-39.4zm78.645 0-17.627 5.6133v81.961h17.627zm-266.25 35.59v16.73h56.697v-16.73zm0 35.592v16.393h56.697v-16.393z"
     fill="#ffffff" /></svg>